# xmcd
#
# Track frame offsets:
#	150
#	19055
#	24140
#	53790
#	82102
#	114902
#	137555
#	156587
#	178490
#	203305
#	247837
# Disc length: 3947 seconds
# Revision: 5
# Processed by: cddbd v1.5.2PL0 Copyright (c) Steve Scherf et al.
#
# Submitted via: libkcddb 0.31
#
DISCID=850f690b
DTITLE=Alpha Blondy - Live Au Zenith (Paris)
DYEAR=1993
DGENRE=Reggae
TTITLE0=Intro: Jah Houphouet Boigny Nous Parle
TTITLE1=Psaume 23
TTITLE2=Jerusalem
TTITLE3=Masada
TTITLE4=Politiki
TTITLE5=Cocody Rock
TTITLE6=Multipartisme
TTITLE7=God is One
TTITLE8=Dji
TTITLE9=Come Back Jesus
TTITLE10=Benediction
EXTD=
EXTT0=
EXTT1=
EXTT2=
EXTT3=
EXTT4=
EXTT5=
EXTT6=
EXTT7=
EXTT8=
EXTT9=
EXTT10=
PLAYORDER=
